<svg width="233" height="54" viewBox="0 0 233 54" fill="none" xmlns="http://www.w3.org/2000/svg">
<g clip-path="url(#clip0_2620_2294)">
<path d="M109.564 23.4332V14.5374H110.095L114.16 21.6711H113.867L117.918 14.5374H118.449V23.4332H117.834V15.5179H118.002L114.16 22.2537H113.853L109.997 15.5179H110.179V23.4332H109.55H109.564Z" fill="white"/>
<path d="M120.055 23.4332L124.079 14.5374H124.721L128.744 23.4332H128.06L124.26 14.9495H124.54L120.754 23.4332H120.069H120.055ZM121.536 20.9321L121.746 20.3921H126.984L127.194 20.9321H121.536Z" fill="white"/>
<path d="M130.323 23.4332V14.5374H130.854L137.084 22.6374H136.791V14.5374H137.434V23.4332H136.903L130.658 15.3332H130.952V23.4332H130.309H130.323Z" fill="white"/>
<path d="M143.915 23.49C142.826 23.49 141.974 23.1632 141.359 22.5237C140.73 21.8842 140.423 20.9179 140.423 19.6532V14.5374H141.066V19.639C141.066 20.7474 141.317 21.5716 141.82 22.1116C142.323 22.6516 143.021 22.9074 143.943 22.9074C144.865 22.9074 145.55 22.6374 146.053 22.1116C146.556 21.5716 146.807 20.7616 146.807 19.639V14.5374H147.45V19.6532C147.45 20.9179 147.142 21.8842 146.514 22.5237C145.885 23.1632 145.033 23.49 143.943 23.49H143.915Z" fill="white"/>
<path d="M148.749 23.4332L152.772 14.5374H153.415L157.438 23.4332H156.754L152.954 14.9495H153.233L149.447 23.4332H148.763H148.749ZM150.23 20.9321L150.439 20.3921H155.678L155.887 20.9321H150.23Z" fill="white"/>
<path d="M159.017 23.4332V14.5374H159.659V22.8505H164.688V23.4332H159.017Z" fill="white"/>
<path d="M169.536 23.4332V14.5374H173C173.922 14.5374 174.733 14.7221 175.431 15.1058C176.13 15.4895 176.674 16.0153 177.065 16.6832C177.457 17.3511 177.652 18.1184 177.652 18.9853C177.652 19.8521 177.457 20.6195 177.065 21.2874C176.674 21.9553 176.13 22.4811 175.431 22.8648C174.733 23.2484 173.922 23.4332 173 23.4332H169.536ZM170.178 22.8505H172.958C173.783 22.8505 174.495 22.68 175.11 22.3532C175.724 22.0263 176.185 21.5716 176.521 20.989C176.856 20.4063 177.024 19.7384 177.024 18.9853C177.024 18.2321 176.856 17.5642 176.521 16.9816C176.185 16.399 175.71 15.9442 175.11 15.6174C174.495 15.2905 173.783 15.12 172.958 15.12H170.178V22.8505Z" fill="white"/>
<path d="M180.502 22.8363H185.894V23.419H179.859V14.5232H185.713V15.1058H180.502V22.8363ZM180.432 18.6158H185.168V19.1842H180.432V18.6158Z" fill="white"/>
<path d="M109.564 38.6811V29.7853H112.693C113.42 29.7853 114.062 29.899 114.579 30.1405C115.096 30.3821 115.501 30.7232 115.795 31.1637C116.074 31.6042 116.214 32.1442 116.214 32.7837C116.214 33.4232 116.074 33.9348 115.795 34.3753C115.515 34.8158 115.11 35.1569 114.579 35.3984C114.048 35.64 113.42 35.7537 112.693 35.7537H109.913L110.207 35.4553V38.6669H109.564V38.6811ZM110.207 35.4979L109.913 35.1995H112.693C113.629 35.1995 114.356 34.9863 114.831 34.56C115.32 34.1337 115.557 33.5369 115.557 32.7837C115.557 32.0305 115.32 31.4195 114.831 30.9932C114.342 30.5669 113.629 30.3679 112.693 30.3679H109.913L110.207 30.0553V35.5121V35.4979ZM115.641 38.6811L113.364 35.4553H114.09L116.367 38.6811H115.641Z" fill="white"/>
<path d="M117.108 38.6811L121.131 29.7853H121.774L125.797 38.6811H125.112L121.313 30.1974H121.592L117.806 38.6811H117.122H117.108ZM118.588 36.18L118.798 35.64H124.037L124.246 36.18H118.588Z" fill="white"/>
<path d="M127.375 38.6811V29.7853H130.84C131.762 29.7853 132.572 29.97 133.271 30.3537C133.969 30.7374 134.514 31.2632 134.905 31.9311C135.296 32.599 135.492 33.3663 135.492 34.2332C135.492 35.1 135.296 35.8674 134.905 36.5353C134.514 37.2032 133.969 37.729 133.271 38.1126C132.572 38.4963 131.762 38.6811 130.84 38.6811H127.375ZM128.018 38.0984H130.798C131.622 38.0984 132.335 37.9279 132.949 37.6011C133.564 37.2742 134.025 36.8195 134.36 36.2369C134.695 35.6542 134.863 34.9863 134.863 34.2332C134.863 33.48 134.695 32.8121 134.36 32.2295C134.025 31.6469 133.55 31.1921 132.949 30.8653C132.335 30.5384 131.622 30.3679 130.798 30.3679H128.018V38.0984Z" fill="white"/>
<path d="M137.699 38.6811V29.7853H138.342V38.6811H137.699Z" fill="white"/>
<path d="M145.089 38.7379C144.446 38.7379 143.832 38.6242 143.287 38.3969C142.728 38.1695 142.253 37.8569 141.834 37.4448C141.415 37.0326 141.108 36.5495 140.884 36.0095C140.661 35.4695 140.549 34.8726 140.549 34.219C140.549 33.5653 140.661 32.9826 140.884 32.4284C141.108 31.8884 141.429 31.4053 141.834 30.9932C142.239 30.5811 142.728 30.2684 143.287 30.0411C143.846 29.8137 144.446 29.7 145.089 29.7C145.732 29.7 146.346 29.8137 146.891 30.0411C147.45 30.2684 147.925 30.5811 148.33 30.9932C148.735 31.4053 149.056 31.8742 149.28 32.4284C149.503 32.9684 149.629 33.5795 149.629 34.2332C149.629 34.8869 149.517 35.4837 149.28 36.0379C149.056 36.5779 148.735 37.0611 148.33 37.4732C147.925 37.8853 147.436 38.1979 146.891 38.4253C146.332 38.6526 145.732 38.7663 145.089 38.7663V38.7379ZM145.089 38.1411C145.648 38.1411 146.165 38.0416 146.64 37.8426C147.115 37.6437 147.534 37.3737 147.883 37.0184C148.232 36.6632 148.511 36.2511 148.707 35.7679C148.903 35.299 149 34.7732 149 34.219C149 33.6647 148.903 33.139 148.707 32.6558C148.511 32.1869 148.232 31.7748 147.883 31.4195C147.534 31.0642 147.128 30.7942 146.64 30.5953C146.165 30.3963 145.648 30.2969 145.089 30.2969C144.53 30.2969 144.013 30.3963 143.538 30.5953C143.063 30.7942 142.644 31.0642 142.295 31.4195C141.946 31.7748 141.666 32.1869 141.471 32.6558C141.275 33.1247 141.177 33.6505 141.177 34.219C141.177 34.7874 141.275 35.299 141.471 35.7679C141.666 36.2369 141.946 36.6632 142.295 37.0184C142.644 37.3737 143.063 37.6437 143.538 37.8426C144.013 38.0416 144.53 38.1411 145.089 38.1411Z" fill="white"/>
<path d="M151.85 38.6811V29.7853H152.493V38.0984H157.522V38.6811H151.85Z" fill="white"/>
<path d="M162.691 38.7379C162.048 38.7379 161.433 38.6242 160.889 38.3969C160.33 38.1695 159.855 37.8569 159.436 37.4448C159.017 37.0326 158.709 36.5495 158.486 36.0095C158.262 35.4695 158.151 34.8726 158.151 34.219C158.151 33.5653 158.262 32.9826 158.486 32.4284C158.709 31.8884 159.031 31.4053 159.436 30.9932C159.841 30.5811 160.33 30.2684 160.889 30.0411C161.447 29.8137 162.048 29.7 162.691 29.7C163.333 29.7 163.948 29.8137 164.493 30.0411C165.052 30.2684 165.527 30.5811 165.932 30.9932C166.337 31.4053 166.658 31.8742 166.882 32.4284C167.105 32.9684 167.231 33.5795 167.231 34.2332C167.231 34.8869 167.119 35.4837 166.882 36.0379C166.658 36.5779 166.337 37.0611 165.932 37.4732C165.527 37.8853 165.038 38.1979 164.493 38.4253C163.934 38.6526 163.333 38.7663 162.691 38.7663V38.7379ZM162.691 38.1411C163.249 38.1411 163.766 38.0416 164.241 37.8426C164.716 37.6437 165.135 37.3737 165.485 37.0184C165.834 36.6632 166.113 36.2511 166.309 35.7679C166.504 35.299 166.602 34.7732 166.602 34.219C166.602 33.6647 166.504 33.139 166.309 32.6558C166.113 32.1869 165.834 31.7748 165.485 31.4195C165.135 31.0642 164.73 30.7942 164.241 30.5953C163.766 30.3963 163.249 30.2969 162.691 30.2969C162.132 30.2969 161.615 30.3963 161.14 30.5953C160.665 30.7942 160.246 31.0642 159.897 31.4195C159.548 31.7748 159.268 32.1869 159.073 32.6558C158.877 33.1247 158.779 33.6505 158.779 34.219C158.779 34.7874 158.877 35.299 159.073 35.7679C159.268 36.2369 159.548 36.6632 159.897 37.0184C160.246 37.3737 160.665 37.6437 161.14 37.8426C161.615 38.0416 162.132 38.1411 162.691 38.1411Z" fill="white"/>
<path d="M173.196 38.7379C172.539 38.7379 171.925 38.6242 171.366 38.3968C170.807 38.1695 170.318 37.8568 169.913 37.4447C169.494 37.0326 169.187 36.5637 168.963 36.0095C168.74 35.4695 168.628 34.8584 168.628 34.2047C168.628 33.551 168.74 32.9542 168.963 32.4C169.187 31.86 169.508 31.3768 169.927 30.9647C170.346 30.5526 170.835 30.24 171.38 30.0126C171.939 29.7853 172.539 29.6716 173.21 29.6716C173.88 29.6716 174.425 29.771 174.97 29.97C175.515 30.1689 175.976 30.4816 176.353 30.8795L175.948 31.3058C175.571 30.9221 175.152 30.6521 174.691 30.4958C174.23 30.3395 173.741 30.2542 173.21 30.2542C172.637 30.2542 172.12 30.3537 171.631 30.5526C171.142 30.7516 170.723 31.0216 170.374 31.3768C170.011 31.7321 169.745 32.1442 169.55 32.6274C169.354 33.1105 169.256 33.6221 169.256 34.1763C169.256 34.7305 169.354 35.2563 169.55 35.7253C169.745 36.1942 170.025 36.6205 170.374 36.9758C170.737 37.331 171.156 37.601 171.631 37.8C172.12 37.9989 172.637 38.0984 173.21 38.0984C173.727 38.0984 174.216 38.0131 174.677 37.8568C175.138 37.7005 175.557 37.4305 175.948 37.061L176.311 37.5584C175.92 37.9421 175.445 38.2263 174.9 38.411C174.355 38.5958 173.783 38.6953 173.182 38.6953L173.196 38.7379ZM175.71 37.53V34.2616H176.325V37.5868L175.71 37.53Z" fill="white"/>
<path d="M179.105 38.6811V29.7853H179.748V38.6811H179.105Z" fill="white"/>
<path d="M181.34 38.6811L185.363 29.7853H186.006L190.029 38.6811H189.345L185.545 30.1974H185.824L182.039 38.6811H181.354H181.34ZM182.821 36.18L183.031 35.64H188.269L188.479 36.18H182.821Z" fill="white"/>
<path d="M109.564 53.929V45.0332H110.207V53.929H109.564Z" fill="white"/>
<path d="M113.252 53.929V45.0332H113.783L120.013 53.1332H119.72V45.0332H120.363V53.929H119.832L113.587 45.829H113.881V53.929H113.238H113.252Z" fill="white"/>
<path d="M125.098 53.929V45.6158H121.955V45.0332H128.884V45.6158H125.741V53.929H125.098Z" fill="white"/>
<path d="M131.091 53.3463H136.484V53.929H130.449V45.0332H136.302V45.6158H131.091V53.3463ZM131.021 49.1258H135.757V49.6942H131.021V49.1258Z" fill="white"/>
<path d="M138.817 53.929V45.0332H141.946C142.672 45.0332 143.315 45.1469 143.832 45.3884C144.349 45.63 144.754 45.9711 145.047 46.4116C145.326 46.8521 145.466 47.3921 145.466 48.0316C145.466 48.6711 145.326 49.1826 145.047 49.6232C144.768 50.0637 144.362 50.4048 143.832 50.6463C143.301 50.8879 142.672 51.0016 141.946 51.0016H139.166L139.459 50.7032V53.9147H138.817V53.929ZM139.459 50.7458L139.166 50.4474H141.946C142.882 50.4474 143.608 50.2342 144.083 49.8079C144.572 49.3816 144.81 48.7847 144.81 48.0316C144.81 47.2784 144.572 46.6674 144.083 46.2411C143.594 45.8148 142.882 45.6158 141.946 45.6158H139.166L139.459 45.3032V50.76V50.7458ZM144.893 53.929L142.616 50.7032H143.343L145.62 53.929H144.893Z" fill="white"/>
<path d="M150.258 53.929L146.36 45.0332H147.059L150.789 53.5311H150.397L154.127 45.0332H154.784L150.886 53.929H150.244H150.258Z" fill="white"/>
<path d="M156.851 53.3463H162.244V53.929H156.209V45.0332H162.062V45.6158H156.851V53.3463ZM156.782 49.1258H161.517V49.6942H156.782V49.1258Z" fill="white"/>
<path d="M164.563 53.929V45.0332H165.093L171.324 53.1332H171.031V45.0332H171.673V53.929H171.142L164.898 45.829H165.191V53.929H164.549H164.563Z" fill="white"/>
<path d="M178.435 54C177.792 54 177.177 53.8863 176.632 53.6589C176.074 53.4316 175.599 53.1189 175.194 52.7068C174.788 52.2947 174.467 51.8258 174.244 51.2716C174.02 50.7316 173.908 50.1205 173.908 49.4668C173.908 48.8132 174.02 48.2163 174.244 47.6621C174.467 47.1221 174.788 46.6389 175.194 46.2268C175.613 45.8147 176.088 45.5021 176.632 45.2747C177.177 45.0474 177.778 44.9337 178.435 44.9337C179.091 44.9337 179.622 45.0332 180.167 45.2321C180.712 45.4311 181.159 45.7437 181.55 46.1558L181.145 46.5821C180.767 46.2126 180.348 45.9426 179.901 45.7721C179.454 45.6016 178.965 45.5305 178.462 45.5305C177.904 45.5305 177.387 45.63 176.912 45.8289C176.437 46.0279 176.018 46.2979 175.669 46.6532C175.319 47.0084 175.04 47.4205 174.844 47.9037C174.649 48.3868 174.551 48.8984 174.551 49.4526C174.551 50.0068 174.649 50.5326 174.844 51.0016C175.04 51.4705 175.319 51.8968 175.669 52.2521C176.018 52.6074 176.437 52.8774 176.912 53.0763C177.387 53.2753 177.904 53.3747 178.462 53.3747C178.965 53.3747 179.454 53.2895 179.901 53.1332C180.362 52.9626 180.767 52.6926 181.145 52.3089L181.55 52.7353C181.173 53.1474 180.712 53.46 180.167 53.6732C179.636 53.8863 179.049 53.9858 178.435 53.9858V54Z" fill="white"/>
<path d="M183.687 53.929V45.0332H184.33V53.929H183.687Z" fill="white"/>
<path d="M191.077 54C190.434 54 189.82 53.8863 189.275 53.6589C188.716 53.4316 188.241 53.1189 187.822 52.7068C187.403 52.2947 187.096 51.8116 186.872 51.2716C186.649 50.7316 186.537 50.1347 186.537 49.481C186.537 48.8274 186.649 48.2447 186.872 47.6905C187.096 47.1505 187.417 46.6674 187.822 46.2553C188.227 45.8431 188.716 45.5305 189.275 45.3031C189.834 45.0758 190.434 44.9621 191.077 44.9621C191.72 44.9621 192.334 45.0758 192.879 45.3031C193.438 45.5305 193.913 45.8431 194.318 46.2553C194.723 46.6674 195.044 47.1363 195.268 47.6905C195.491 48.2305 195.617 48.8416 195.617 49.4953C195.617 50.1489 195.505 50.7458 195.268 51.3C195.044 51.84 194.723 52.3232 194.318 52.7353C193.913 53.1474 193.424 53.46 192.879 53.6874C192.32 53.9147 191.72 54.0284 191.077 54.0284V54ZM191.077 53.4032C191.636 53.4032 192.153 53.3037 192.628 53.1047C193.103 52.9058 193.522 52.6358 193.871 52.2805C194.22 51.9253 194.5 51.5132 194.695 51.03C194.891 50.561 194.989 50.0353 194.989 49.481C194.989 48.9268 194.891 48.401 194.695 47.9179C194.5 47.4489 194.22 47.0368 193.871 46.6816C193.522 46.3263 193.117 46.0563 192.628 45.8574C192.153 45.6584 191.636 45.5589 191.077 45.5589C190.518 45.5589 190.001 45.6584 189.526 45.8574C189.051 46.0563 188.632 46.3263 188.283 46.6816C187.934 47.0368 187.654 47.4489 187.459 47.9179C187.263 48.3868 187.166 48.9126 187.166 49.481C187.166 50.0495 187.263 50.561 187.459 51.03C187.654 51.4989 187.934 51.9253 188.283 52.2805C188.632 52.6358 189.051 52.9058 189.526 53.1047C190.001 53.3037 190.518 53.4032 191.077 53.4032Z" fill="white"/>
<path d="M197.838 53.929V45.0332H198.369L204.6 53.1332H204.306V45.0332H204.949V53.929H204.418L198.174 45.829H198.467V53.929H197.824H197.838Z" fill="white"/>
<path d="M208.008 53.929V45.0332H208.651V53.929H208.008Z" fill="white"/>
<path d="M213.987 54C213.331 54 212.73 53.8863 212.143 53.659C211.571 53.4316 211.11 53.1474 210.802 52.7921L211.096 52.309C211.389 52.6216 211.808 52.8916 212.325 53.1047C212.842 53.3179 213.401 53.4316 213.987 53.4316C214.574 53.4316 215.049 53.3463 215.412 53.19C215.775 53.0337 216.055 52.8205 216.236 52.5648C216.418 52.309 216.502 52.0105 216.502 51.6837C216.502 51.3 216.404 51.0016 216.208 50.7742C216.013 50.5469 215.747 50.3621 215.426 50.2342C215.105 50.0921 214.742 49.9784 214.364 49.8932C213.987 49.7937 213.596 49.6942 213.205 49.5948C212.814 49.4953 212.451 49.3532 212.129 49.1826C211.808 49.0121 211.543 48.7847 211.347 48.4863C211.151 48.1879 211.054 47.8184 211.054 47.3495C211.054 46.9232 211.165 46.5395 211.375 46.1842C211.585 45.829 211.934 45.5447 212.381 45.3174C212.842 45.1042 213.429 44.9905 214.141 44.9905C214.63 44.9905 215.105 45.0616 215.566 45.2037C216.041 45.3458 216.446 45.5448 216.767 45.7863L216.53 46.3121C216.167 46.0563 215.775 45.8716 215.356 45.7437C214.937 45.6158 214.532 45.559 214.141 45.559C213.582 45.559 213.121 45.6442 212.758 45.8005C212.395 45.9569 212.115 46.17 211.948 46.44C211.78 46.71 211.682 47.0084 211.682 47.3353C211.682 47.719 211.78 48.0174 211.976 48.2448C212.171 48.4721 212.437 48.6569 212.758 48.7848C213.079 48.9126 213.442 49.0405 213.834 49.1258C214.225 49.2253 214.616 49.3247 214.993 49.4242C215.37 49.5237 215.734 49.6658 216.055 49.8363C216.376 50.0069 216.642 50.2342 216.837 50.5184C217.033 50.8026 217.13 51.1721 217.13 51.6411C217.13 52.0532 217.019 52.4511 216.795 52.8063C216.572 53.1616 216.222 53.46 215.761 53.6732C215.3 53.8863 214.7 54 213.987 54Z" fill="white"/>
<path d="M220.846 53.929V45.6158H217.703V45.0332H224.632V45.6158H221.489V53.929H220.846Z" fill="white"/>
<path d="M224.311 53.929L228.334 45.0332H228.977L233 53.929H232.316L228.516 45.4453H228.795L225.009 53.929H224.325H224.311ZM225.792 51.4279L226.001 50.8879H231.24L231.449 51.4279H225.792Z" fill="white"/>
<path d="M101.518 6.36632C100.805 7.09105 99.939 7.44632 98.9192 7.44632C97.8994 7.44632 97.0333 7.09105 96.3208 6.36632C95.6084 5.64158 95.2591 4.76053 95.2591 3.72316C95.2591 2.68579 95.6084 1.80474 96.3208 1.08C97.0193 0.355263 97.8854 0 98.9052 0C99.925 0 100.791 0.355263 101.504 1.08C102.216 1.80474 102.565 2.68579 102.565 3.72316C102.565 4.76053 102.216 5.64158 101.504 6.36632H101.518ZM105.359 7.00579V0.483158H124.093V6.99158H105.359V7.00579Z" fill="#3EDD8D"/>
<path d="M0 3.72314H6.44001L14.752 18.09L22.7007 3.72314H29.1407V29.3731H22.7007V15.191L17.0709 25.3516H12.0977L6.45398 15.6031V29.3731H0V3.72314Z" fill="white"/>
<path d="M44.1441 3.72314H51.6039L62.9194 29.3731H55.5993L53.4759 24.1579H42.0627L39.9393 29.3731H32.8008L44.1441 3.72314ZM51.2407 18.7295L47.7623 10.2742L44.2838 18.7295H51.2407Z" fill="white"/>
<path d="M66.5794 3.72314H80.3814C82.3651 3.72314 84.0974 4.12104 85.5921 4.93104C87.0869 5.74104 88.2464 6.84946 89.0706 8.28472C89.8808 9.70578 90.2999 11.3116 90.2999 13.0737C90.2999 14.5089 89.9646 16.0153 89.2801 17.5642C88.5956 19.1131 87.492 20.3353 85.9553 21.2305L91.5851 29.3874H83.4967L78.9565 22.4668H73.2849V29.3874H66.5934V3.72314H66.5794ZM79.2359 16.4984C80.5072 16.4984 81.485 16.2 82.1835 15.5889C82.882 14.9779 83.2313 14.1537 83.2313 13.1163C83.2313 12.0789 82.882 11.2121 82.1835 10.601C81.485 9.98999 80.5072 9.69157 79.2359 9.69157H73.2709V16.4984H79.2359Z" fill="white"/>
<path d="M95.5944 10.2742H102.286V29.3731H95.5944V10.2742Z" fill="white"/>
</g>
<defs>
<clipPath id="clip0_2620_2294">
<rect width="233" height="54" fill="white"/>
</clipPath>
</defs>
</svg>
