<svg width="178" height="111" viewBox="0 0 178 111" fill="none" xmlns="http://www.w3.org/2000/svg">
<g clip-path="url(#clip0_2019_7090)">
<path d="M0 67.01V54.4011H0.777261L6.62831 64.5055H6.21809L12.0547 54.4011H12.8104L12.832 67.01H11.9252L11.9108 55.7829H12.1627L6.62831 65.3332H6.1821L0.633324 55.7829H0.899608V67.01H0Z" fill="white"/>
<path d="M17.2438 63.462L17.5533 62.6847H25.1028L25.405 63.462H17.2438ZM15.1207 67.01L20.9214 54.4011H21.8426L27.6433 67.01H26.6501L21.1733 54.9769H21.5691L16.1067 67.01H15.1135H15.1207Z" fill="white"/>
<path d="M29.9246 67.01V54.4011H30.7018L39.6907 65.8729H39.2805V54.4011H40.1945V67.01H39.4388L30.4283 55.531H30.8458V67.01H29.9246Z" fill="white"/>
<path d="M49.5289 67.0963C47.9672 67.0963 46.7365 66.6429 45.8369 65.7289C44.9373 64.8149 44.4839 63.4618 44.4839 61.6554V54.3938H45.4051V61.6194C45.4051 63.1956 45.7649 64.3615 46.4846 65.1171C47.2043 65.8728 48.2263 66.2542 49.5505 66.2542C50.8747 66.2542 51.8751 65.8728 52.5948 65.1171C53.3144 64.3615 53.6743 63.1956 53.6743 61.6194V54.3938H54.5955V61.6554C54.5955 63.4546 54.1421 64.8149 53.2425 65.7289C52.3429 66.6429 51.105 67.0963 49.5289 67.0963Z" fill="white"/>
<path d="M58.633 63.462L58.9424 62.6847H66.4919L66.7942 63.462H58.633ZM56.5099 67.01L62.3106 54.4011H63.2318L69.0324 67.01H68.0393L62.5624 54.9769H62.9583L57.4959 67.01H56.5027H56.5099Z" fill="white"/>
<path d="M71.3137 67.01V54.4011H72.2349V66.1824H79.4966V67.01H71.3137Z" fill="white"/>
<path d="M87.4058 66.1824H91.4073C92.5948 66.1824 93.6311 65.9449 94.5019 65.4771C95.3799 65.0093 96.0564 64.3616 96.5386 63.5411C97.0208 62.7207 97.2583 61.7707 97.2583 60.7056C97.2583 59.6404 97.0208 58.6905 96.5386 57.87C96.0564 57.0496 95.3799 56.4019 94.5019 55.9341C93.6239 55.4663 92.5948 55.2288 91.4073 55.2288H87.4058V66.1824ZM86.4846 67.01V54.4011H91.472C92.8035 54.4011 93.9766 54.6746 94.9841 55.2144C95.9917 55.7541 96.7761 56.5026 97.3375 57.4454C97.8988 58.3954 98.1795 59.4821 98.1795 60.7056C98.1795 61.929 97.8988 63.0158 97.3375 63.9658C96.7761 64.9157 95.9917 65.657 94.9841 66.1968C93.9766 66.7366 92.8035 67.01 91.472 67.01H86.4846Z" fill="white"/>
<path d="M102.174 60.2018H109.004V61.015H102.174V60.2018ZM102.282 66.1824H110.062V67.01H101.361V54.4011H109.795V55.2288H102.282V66.1824Z" fill="white"/>
<path d="M8.75858 88.6294L5.47681 84.0522H6.52036L9.80213 88.6294H8.75858ZM0.921198 84.1242L0.50378 83.6924H4.51963C5.87984 83.6924 6.90899 83.3901 7.60708 82.7928C8.31238 82.1954 8.65783 81.3534 8.65783 80.2739C8.65783 79.1943 8.30518 78.3379 7.60708 77.7406C6.90179 77.1432 5.87264 76.8481 4.51963 76.8481H0.50378L0.921198 76.4019V84.1314V84.1242ZM0 88.6294V76.0205H4.51963C5.57757 76.0205 6.48437 76.186 7.24004 76.5243C7.99571 76.8625 8.57866 77.3447 8.98888 77.9781C9.3991 78.6114 9.60061 79.3742 9.60061 80.2739C9.60061 81.1735 9.3991 81.9075 8.98888 82.5337C8.57866 83.167 7.99571 83.6492 7.24004 83.9946C6.48437 84.3401 5.57757 84.5056 4.51963 84.5056H0.50378L0.921198 84.0738V88.6294H0Z" fill="white"/>
<path d="M12.9904 85.0814L13.2998 84.3041H20.8494L21.1516 85.0814H12.9904ZM10.8673 88.6294L16.668 76.0205H17.5892L23.3898 88.6294H22.3967L16.9199 76.5963H17.3157L11.8533 88.6294H10.8601H10.8673Z" fill="white"/>
<path d="M26.5923 87.8018H30.5938C31.7813 87.8018 32.8176 87.5643 33.6884 87.0965C34.5665 86.6287 35.243 85.981 35.7252 85.1605C36.2074 84.3401 36.4448 83.3901 36.4448 82.325C36.4448 81.2598 36.2074 80.3098 35.7252 79.4894C35.243 78.669 34.5665 78.0212 33.6884 77.5534C32.8104 77.0856 31.7813 76.8481 30.5938 76.8481H26.5923V87.8018ZM25.6711 88.6294V76.0205H30.6586C31.99 76.0205 33.1631 76.294 34.1706 76.8338C35.1782 77.3735 35.9627 78.122 36.524 79.0648C37.0854 80.0148 37.366 81.1015 37.366 82.325C37.366 83.5484 37.0854 84.6352 36.524 85.5851C35.9627 86.5351 35.1782 87.2764 34.1706 87.8162C33.1631 88.3559 31.99 88.6294 30.6586 88.6294H25.6711Z" fill="white"/>
<path d="M41.4754 76.0205H40.5542V88.6294H41.4754V76.0205Z" fill="white"/>
<path d="M51.22 87.8738C52.0261 87.8738 52.7674 87.7371 53.4511 87.4564C54.1348 87.1829 54.7321 86.7871 55.2359 86.2833C55.7397 85.7795 56.1355 85.1894 56.4162 84.5201C56.6968 83.8436 56.8408 83.1167 56.8408 82.3178C56.8408 81.519 56.6968 80.7777 56.4162 80.1084C56.1355 79.4391 55.7397 78.8561 55.2359 78.3523C54.7321 77.8486 54.142 77.4599 53.4511 77.1793C52.7674 76.9058 52.0261 76.7618 51.22 76.7618C50.414 76.7618 49.6727 76.8986 48.989 77.1793C48.3053 77.4527 47.708 77.8486 47.197 78.3523C46.686 78.8561 46.2902 79.4391 46.0095 80.1084C45.7288 80.7777 45.5849 81.5118 45.5849 82.3178C45.5849 83.1239 45.7288 83.8436 46.0095 84.5201C46.2902 85.1894 46.686 85.7795 47.197 86.2833C47.708 86.7871 48.3053 87.1757 48.989 87.4564C49.6727 87.7299 50.4212 87.8738 51.22 87.8738ZM51.22 88.723C50.2844 88.723 49.4136 88.5647 48.6148 88.248C47.8159 87.9314 47.1178 87.478 46.5277 86.895C45.9303 86.3121 45.4697 85.6356 45.1459 84.8583C44.822 84.081 44.6565 83.239 44.6565 82.325C44.6565 81.411 44.822 80.569 45.1459 79.7917C45.4697 79.0145 45.9303 78.338 46.5277 77.755C47.125 77.1721 47.8159 76.7187 48.6148 76.402C49.4136 76.0853 50.2844 75.927 51.22 75.927C52.1556 75.927 53.0264 76.0853 53.8253 76.402C54.6241 76.7187 55.315 77.1649 55.9052 77.7478C56.4953 78.3236 56.9559 79.0001 57.287 79.7773C57.618 80.5546 57.7836 81.4038 57.7836 82.325C57.7836 83.2462 57.618 84.1026 57.287 84.8727C56.9559 85.65 56.4953 86.3265 55.9052 86.9022C55.315 87.478 54.6241 87.9242 53.8253 88.248C53.0264 88.5647 52.1556 88.723 51.22 88.723Z" fill="white"/>
<path d="M60.9719 88.6294V76.0205H61.8931V87.8018H69.1548V88.6294H60.9719Z" fill="white"/>
<path d="M76.6107 87.8738C77.4167 87.8738 78.158 87.7371 78.8417 87.4564C79.5254 87.1829 80.1227 86.7871 80.6265 86.2833C81.1303 85.7795 81.5261 85.1894 81.8068 84.5201C82.0875 83.8436 82.2314 83.1167 82.2314 82.3178C82.2314 81.519 82.0875 80.7777 81.8068 80.1084C81.5261 79.4391 81.1303 78.8561 80.6265 78.3523C80.1227 77.8486 79.5326 77.4599 78.8417 77.1793C78.158 76.9058 77.4167 76.7618 76.6107 76.7618C75.8046 76.7618 75.0633 76.8986 74.3796 77.1793C73.6959 77.4527 73.0986 77.8486 72.5876 78.3523C72.0766 78.8561 71.6808 79.4391 71.4001 80.1084C71.1194 80.7777 70.9755 81.5118 70.9755 82.3178C70.9755 83.1239 71.1194 83.8436 71.4001 84.5201C71.6808 85.1894 72.0766 85.7795 72.5876 86.2833C73.0986 86.7871 73.6959 87.1757 74.3796 87.4564C75.0633 87.7299 75.8118 87.8738 76.6107 87.8738ZM76.6107 88.723C75.6751 88.723 74.8042 88.5647 74.0054 88.248C73.2065 87.9314 72.5084 87.478 71.9183 86.895C71.321 86.3121 70.8604 85.6356 70.5365 84.8583C70.2126 84.081 70.0471 83.239 70.0471 82.325C70.0471 81.411 70.2126 80.569 70.5365 79.7917C70.8604 79.0145 71.321 78.338 71.9183 77.755C72.5156 77.1721 73.2065 76.7187 74.0054 76.402C74.8042 76.0853 75.6751 75.927 76.6107 75.927C77.5462 75.927 78.4171 76.0853 79.2159 76.402C80.0148 76.7187 80.7057 77.1649 81.2958 77.7478C81.886 78.3236 82.3466 79.0001 82.6776 79.7773C83.0087 80.5546 83.1742 81.4038 83.1742 82.325C83.1742 83.2462 83.0087 84.1026 82.6776 84.8727C82.3466 85.65 81.886 86.3265 81.2958 86.9022C80.7057 87.478 80.0148 87.9242 79.2159 88.248C78.4171 88.5647 77.5462 88.723 76.6107 88.723Z" fill="white"/>
<path d="M95.3729 87.0102V82.3826H96.2581V87.1037L95.3729 87.0102ZM91.7528 88.723C90.8029 88.723 89.9248 88.5647 89.126 88.248C88.3199 87.9314 87.6218 87.4852 87.0245 86.9022C86.4272 86.3265 85.9666 85.65 85.6427 84.8727C85.3188 84.0954 85.1533 83.2462 85.1533 82.325C85.1533 81.4038 85.3117 80.5474 85.6427 79.7773C85.9666 79.0001 86.4272 78.3236 87.0317 77.7478C87.6362 77.1721 88.3343 76.7259 89.1332 76.402C89.932 76.0853 90.8101 75.927 91.7744 75.927C92.7388 75.927 93.5377 76.0709 94.3149 76.3588C95.0994 76.6467 95.7615 77.0785 96.3157 77.6543L95.7399 78.266C95.1857 77.7262 94.5812 77.3376 93.9335 77.1145C93.2786 76.8842 92.5661 76.769 91.796 76.769C90.9756 76.769 90.2199 76.9058 89.529 77.1865C88.8309 77.4599 88.2264 77.8558 87.7082 78.3595C87.19 78.8633 86.7942 79.4535 86.5135 80.1228C86.2328 80.7993 86.0889 81.5262 86.0889 82.3178C86.0889 83.1095 86.2328 83.8436 86.5135 84.5201C86.7942 85.1894 87.1972 85.7795 87.7082 86.2833C88.2264 86.7871 88.8309 87.1757 89.529 87.4564C90.2271 87.7299 90.9828 87.8738 91.796 87.8738C92.5445 87.8738 93.2498 87.7586 93.9119 87.5283C94.5812 87.298 95.1857 86.9238 95.7399 86.3912L96.2653 87.0965C95.7039 87.6363 95.0274 88.0393 94.2358 88.3128C93.4513 88.5863 92.6237 88.7158 91.76 88.7158" fill="white"/>
<path d="M101.21 76.0205H100.288V88.6294H101.21V76.0205Z" fill="white"/>
<path d="M105.621 85.0814L105.931 84.3041H113.48L113.782 85.0814H105.621ZM103.498 88.6294L109.299 76.0205H110.22L116.021 88.6294H115.028L109.551 76.5963H109.947L104.484 88.6294H103.491H103.498Z" fill="white"/>
<path d="M0.921198 97.6399H0V110.249H0.921198V97.6399Z" fill="white"/>
<path d="M5.31128 110.256V97.6399H6.08854L15.0774 109.119H14.6672V97.6399H15.5812V110.256H14.8255L5.81506 98.777H6.23248V110.256H5.31128Z" fill="white"/>
<path d="M22.3967 110.256V98.4675H17.8555V97.6399H27.8519V98.4675H23.3107V110.256H22.3967Z" fill="white"/>
<path d="M30.9321 103.441H37.762V104.254H30.9321V103.441ZM31.0401 109.421H38.8199V110.249H30.1189V97.6399H38.5536V98.4675H31.0401V109.421Z" fill="white"/>
<path d="M50.9322 110.256L47.6504 105.679H48.6939L51.9757 110.256H50.9322ZM43.0948 105.751L42.6774 105.319H46.6932C48.0534 105.319 49.0826 105.017 49.7807 104.419C50.486 103.822 50.8314 102.98 50.8314 101.9C50.8314 100.821 50.4788 99.9644 49.7807 99.367C49.0754 98.7697 48.0462 98.4746 46.6932 98.4746H42.6774L43.0948 98.0212V105.751ZM42.1736 110.256V97.647H46.6932C47.7512 97.647 48.658 97.8125 49.4136 98.1508C50.1693 98.489 50.7522 98.9712 51.1625 99.6045C51.5727 100.238 51.7742 101.001 51.7742 101.9C51.7742 102.8 51.5727 103.534 51.1625 104.16C50.7522 104.793 50.1693 105.276 49.4136 105.621C48.658 105.967 47.7512 106.132 46.6932 106.132H42.6774L43.0948 105.7V110.256H42.1736Z" fill="white"/>
<path d="M58.6832 110.256L53.0625 97.6399H54.0701L59.4389 109.695H58.8776L64.268 97.6399H65.2252L59.5972 110.256H58.6832Z" fill="white"/>
<path d="M68.0679 103.441H74.8977V104.254H68.0679V103.441ZM68.1758 109.421H75.9556V110.249H67.2546V97.6399H75.6894V98.4675H68.1758V109.421Z" fill="white"/>
<path d="M79.3167 110.256V97.6399H80.0867L89.0828 109.119H88.6654V97.6399H89.5866V110.256H88.8237L79.8204 98.777H80.2307V110.256H79.3167Z" fill="white"/>
<path d="M99.3166 110.342C98.381 110.342 97.5102 110.184 96.7113 109.867C95.9125 109.551 95.2144 109.105 94.6314 108.522C94.0413 107.946 93.5879 107.269 93.264 106.492C92.9402 105.715 92.7747 104.866 92.7747 103.944C92.7747 103.023 92.933 102.167 93.264 101.397C93.5879 100.619 94.0485 99.943 94.6386 99.3672C95.236 98.7915 95.9269 98.3452 96.7185 98.0214C97.5102 97.7047 98.3738 97.5464 99.3166 97.5464C100.259 97.5464 101.037 97.6903 101.814 97.9782C102.591 98.2661 103.253 98.7051 103.807 99.2952L103.232 99.8926C102.692 99.3672 102.095 98.9786 101.44 98.7483C100.785 98.518 100.087 98.3956 99.3598 98.3956C98.5537 98.3956 97.8053 98.5324 97.1144 98.813C96.4235 99.0865 95.8261 99.4823 95.3151 99.9861C94.8042 100.49 94.4083 101.08 94.1277 101.749C93.847 102.426 93.703 103.153 93.703 103.944C93.703 104.736 93.847 105.47 94.1277 106.139C94.4083 106.809 94.8042 107.399 95.3151 107.903C95.8261 108.406 96.4235 108.795 97.1144 109.076C97.8053 109.349 98.5537 109.493 99.3598 109.493C100.094 109.493 100.785 109.378 101.44 109.141C102.095 108.903 102.692 108.522 103.232 107.982L103.807 108.579C103.253 109.169 102.591 109.608 101.814 109.903C101.037 110.198 100.209 110.342 99.3166 110.342Z" fill="white"/>
<path d="M107.802 97.6399H106.881V110.249H107.802V97.6399Z" fill="white"/>
<path d="M117.546 109.5C118.352 109.5 119.094 109.364 119.777 109.083C120.461 108.809 121.059 108.414 121.562 107.91C122.066 107.406 122.462 106.816 122.743 106.147C123.023 105.477 123.167 104.743 123.167 103.951C123.167 103.16 123.023 102.411 122.743 101.742C122.462 101.073 122.066 100.49 121.562 99.986C121.059 99.4822 120.468 99.0936 119.777 98.8129C119.094 98.5394 118.352 98.3955 117.546 98.3955C116.74 98.3955 115.999 98.5322 115.315 98.8129C114.632 99.0864 114.034 99.4822 113.523 99.986C113.012 100.49 112.617 101.073 112.336 101.742C112.055 102.411 111.911 103.145 111.911 103.951C111.911 104.758 112.055 105.477 112.336 106.147C112.617 106.816 113.012 107.406 113.523 107.91C114.034 108.414 114.632 108.802 115.315 109.083C115.999 109.356 116.748 109.5 117.546 109.5ZM117.546 110.349C116.611 110.349 115.74 110.191 114.941 109.874C114.142 109.558 113.444 109.104 112.854 108.521C112.257 107.939 111.796 107.262 111.472 106.485C111.148 105.708 110.983 104.865 110.983 103.951C110.983 103.037 111.148 102.195 111.472 101.418C111.796 100.641 112.257 99.9644 112.854 99.3815C113.451 98.7985 114.142 98.3451 114.941 98.0285C115.74 97.7118 116.611 97.5535 117.546 97.5535C118.482 97.5535 119.353 97.7118 120.152 98.0285C120.951 98.3451 121.641 98.7913 122.232 99.3743C122.822 99.95 123.282 100.627 123.613 101.404C123.944 102.181 124.11 103.03 124.11 103.951C124.11 104.873 123.944 105.729 123.613 106.499C123.282 107.276 122.822 107.953 122.232 108.529C121.641 109.104 120.951 109.551 120.152 109.874C119.353 110.191 118.482 110.349 117.546 110.349Z" fill="white"/>
<path d="M127.298 110.256V97.6399H128.068L137.064 109.119H136.647V97.6399H137.561V110.256H136.805L127.802 98.777H128.212V110.256H127.298Z" fill="white"/>
<path d="M142.887 97.6399H141.965V110.249H142.887V97.6399Z" fill="white"/>
<path d="M150.594 110.342C149.659 110.342 148.773 110.184 147.939 109.867C147.104 109.551 146.456 109.133 146.003 108.629L146.42 107.946C146.852 108.392 147.442 108.766 148.198 109.068C148.946 109.378 149.745 109.529 150.587 109.529C151.429 109.529 152.113 109.421 152.653 109.198C153.185 108.975 153.581 108.68 153.84 108.306C154.099 107.931 154.229 107.521 154.229 107.061C154.229 106.521 154.085 106.089 153.797 105.765C153.509 105.441 153.128 105.182 152.66 104.988C152.192 104.794 151.681 104.635 151.127 104.498C150.573 104.362 150.019 104.225 149.45 104.074C148.881 103.923 148.37 103.728 147.903 103.491C147.435 103.253 147.061 102.922 146.773 102.512C146.492 102.095 146.348 101.562 146.348 100.9C146.348 100.303 146.506 99.7485 146.816 99.2447C147.125 98.7409 147.615 98.3307 148.277 98.0213C148.939 97.7118 149.781 97.5535 150.817 97.5535C151.515 97.5535 152.199 97.6542 152.883 97.8629C153.559 98.0644 154.142 98.3451 154.625 98.6906L154.279 99.4318C153.754 99.072 153.185 98.8057 152.581 98.633C151.976 98.4603 151.386 98.3739 150.825 98.3739C150.019 98.3739 149.349 98.4891 148.824 98.7194C148.298 98.9497 147.903 99.2519 147.651 99.6262C147.399 100.008 147.269 100.425 147.269 100.9C147.269 101.44 147.413 101.872 147.694 102.195C147.975 102.519 148.356 102.778 148.824 102.973C149.292 103.167 149.81 103.325 150.371 103.462C150.933 103.592 151.494 103.736 152.048 103.887C152.602 104.038 153.113 104.232 153.581 104.47C154.049 104.707 154.43 105.031 154.718 105.441C155.006 105.851 155.15 106.377 155.15 107.025C155.15 107.615 154.992 108.162 154.668 108.673C154.344 109.184 153.847 109.594 153.178 109.896C152.509 110.206 151.652 110.357 150.609 110.357" fill="white"/>
<path d="M160.483 110.256V98.4675H155.942V97.6399H165.945V98.4675H161.404V110.256H160.483Z" fill="white"/>
<path d="M167.6 106.708L167.91 105.931H175.459L175.762 106.708H167.6ZM165.477 110.256L171.278 97.647H172.199L178 110.256H177.007L171.53 98.2227H171.926L166.463 110.256H165.47H165.477Z" fill="white"/>
<path d="M149.875 0.676622H176.654V9.83103H149.875V0.676622ZM145.06 8.93862C144.045 9.95338 142.807 10.4572 141.346 10.4572C139.885 10.4572 138.64 9.95338 137.633 8.93862C136.625 7.93106 136.114 6.6932 136.114 5.22504C136.114 3.75688 136.618 2.52622 137.633 1.51146C138.648 0.4967 139.885 -0.00708008 141.346 -0.00708008C142.807 -0.00708008 144.052 0.4967 145.06 1.51146C146.075 2.52622 146.578 3.75688 146.578 5.22504C146.578 6.6932 146.075 7.92386 145.06 8.93862Z" fill="#3EDD8D"/>
<path d="M0 5.23218H9.20479L21.0796 25.4194L32.4291 5.23218H41.6338V41.2669H32.4291V21.3388L24.3758 35.6173H17.2581L9.20479 21.9145V41.2669H0V5.23218Z" fill="white"/>
<path d="M73.221 26.3118L68.248 14.437L63.2821 26.3118H73.221ZM63.0734 5.23218H73.7464L89.9105 41.2669H79.4463L76.4092 33.9477H60.0939L57.0568 41.2669H46.8589L63.0734 5.23218Z" fill="white"/>
<path d="M113.235 23.1666C115.049 23.1666 116.452 22.742 117.446 21.8856C118.439 21.0292 118.935 19.8705 118.935 18.4095C118.935 16.9485 118.439 15.7323 117.446 14.8758C116.452 14.0194 115.049 13.5948 113.235 13.5948H104.707V23.1666H113.235ZM95.1426 5.22485H114.862C117.69 5.22485 120.173 5.79341 122.318 6.92331C124.463 8.05322 126.118 9.62214 127.291 11.6301C128.457 13.638 129.04 15.8762 129.04 18.3519C129.04 20.3742 128.55 22.4757 127.579 24.6564C126.6 26.837 125.017 28.5571 122.822 29.8093L130.875 41.2667H119.317L112.832 31.5366H104.722V41.2667H95.1498V5.23205L95.1426 5.22485Z" fill="white"/>
<path d="M146.19 14.437H136.618V41.2669H146.19V14.437Z" fill="white"/>
</g>
<defs>
<clipPath id="clip0_2019_7090">
<rect width="178" height="110.342" fill="white"/>
</clipPath>
</defs>
</svg>
