<svg width="36" height="25" viewBox="0 0 36 25" fill="none" xmlns="http://www.w3.org/2000/svg">
<path d="M14.4 17.8571L23.742 12.5L14.4 7.14286V17.8571ZM35.208 3.875C35.442 4.71429 35.604 5.83928 35.712 7.26786C35.838 8.69643 35.892 9.92857 35.892 11L36 12.5C36 16.4107 35.712 19.2857 35.208 21.125C34.758 22.7321 33.714 23.7679 32.094 24.2143C31.248 24.4464 29.7 24.6071 27.324 24.7143C24.984 24.8393 22.842 24.8929 20.862 24.8929L18 25C10.458 25 5.76 24.7143 3.906 24.2143C2.286 23.7679 1.242 22.7321 0.792 21.125C0.558 20.2857 0.396 19.1607 0.288 17.7321C0.162 16.3036 0.108 15.0714 0.108 14L0 12.5C0 8.58929 0.288 5.71429 0.792 3.875C1.242 2.26786 2.286 1.23214 3.906 0.785714C4.752 0.553572 6.3 0.392857 8.676 0.285714C11.016 0.160714 13.158 0.107143 15.138 0.107143L18 0C25.542 0 30.24 0.285714 32.094 0.785714C33.714 1.23214 34.758 2.26786 35.208 3.875Z" fill="white"/>
</svg>
